<mxfile host="app.diagrams.net" agent="Mozilla/5.0 (Windows NT 10.0; Win64; x64; rv:136.0) Gecko/20100101 Firefox/136.0" version="26.1.1">
  <diagram name="Page-1" id="0783ab3e-0a74-02c8-0abd-f7b4e66b4bec">
    <mxGraphModel dx="2074" dy="1106" grid="1" gridSize="10" guides="1" tooltips="1" connect="1" arrows="1" fold="1" page="1" pageScale="1" pageWidth="850" pageHeight="1100" background="none" math="0" shadow="0">
      <root>
        <mxCell id="0" />
        <mxCell id="1" parent="0" />
        <mxCell id="Bm6jAi3F0s3E43qV5JZB-27" value="Gallery" style="shape=umlLifeline;perimeter=lifelinePerimeter;whiteSpace=wrap;html=1;container=1;dropTarget=0;collapsible=0;recursiveResize=0;outlineConnect=0;portConstraint=eastwest;newEdgeStyle={&quot;curved&quot;:0,&quot;rounded&quot;:0};" vertex="1" parent="1">
          <mxGeometry x="70" y="50" width="100" height="590" as="geometry" />
        </mxCell>
        <mxCell id="Bm6jAi3F0s3E43qV5JZB-42" value="" style="html=1;points=[[0,0,0,0,5],[0,1,0,0,-5],[1,0,0,0,5],[1,1,0,0,-5]];perimeter=orthogonalPerimeter;outlineConnect=0;targetShapes=umlLifeline;portConstraint=eastwest;newEdgeStyle={&quot;curved&quot;:0,&quot;rounded&quot;:0};" vertex="1" parent="Bm6jAi3F0s3E43qV5JZB-27">
          <mxGeometry x="45" y="110" width="10" height="80" as="geometry" />
        </mxCell>
        <mxCell id="Bm6jAi3F0s3E43qV5JZB-43" value="Request photos" style="html=1;verticalAlign=bottom;endArrow=block;curved=0;rounded=0;entryX=1;entryY=0;entryDx=0;entryDy=5;" edge="1" target="Bm6jAi3F0s3E43qV5JZB-42" parent="Bm6jAi3F0s3E43qV5JZB-27">
          <mxGeometry relative="1" as="geometry">
            <mxPoint x="125" y="115" as="sourcePoint" />
          </mxGeometry>
        </mxCell>
        <mxCell id="Bm6jAi3F0s3E43qV5JZB-44" value="Return Photos" style="html=1;verticalAlign=bottom;endArrow=open;dashed=1;endSize=8;curved=0;rounded=0;exitX=1;exitY=1;exitDx=0;exitDy=-5;" edge="1" source="Bm6jAi3F0s3E43qV5JZB-42" parent="Bm6jAi3F0s3E43qV5JZB-27">
          <mxGeometry relative="1" as="geometry">
            <mxPoint x="125" y="185" as="targetPoint" />
          </mxGeometry>
        </mxCell>
        <mxCell id="Bm6jAi3F0s3E43qV5JZB-29" value="Photo scanner" style="shape=umlLifeline;perimeter=lifelinePerimeter;whiteSpace=wrap;html=1;container=1;dropTarget=0;collapsible=0;recursiveResize=0;outlineConnect=0;portConstraint=eastwest;newEdgeStyle={&quot;curved&quot;:0,&quot;rounded&quot;:0};" vertex="1" parent="1">
          <mxGeometry x="190" y="50" width="150" height="590" as="geometry" />
        </mxCell>
        <mxCell id="Bm6jAi3F0s3E43qV5JZB-38" value="" style="html=1;points=[[0,0,0,0,5],[0,1,0,0,-5],[1,0,0,0,5],[1,1,0,0,-5]];perimeter=orthogonalPerimeter;outlineConnect=0;targetShapes=umlLifeline;portConstraint=eastwest;newEdgeStyle={&quot;curved&quot;:0,&quot;rounded&quot;:0};" vertex="1" parent="Bm6jAi3F0s3E43qV5JZB-29">
          <mxGeometry x="65" y="70" width="10" height="40" as="geometry" />
        </mxCell>
        <mxCell id="Bm6jAi3F0s3E43qV5JZB-39" value="Start scan" style="html=1;align=left;spacingLeft=2;endArrow=block;rounded=0;edgeStyle=orthogonalEdgeStyle;curved=0;rounded=0;" edge="1" target="Bm6jAi3F0s3E43qV5JZB-38" parent="Bm6jAi3F0s3E43qV5JZB-29">
          <mxGeometry relative="1" as="geometry">
            <mxPoint x="80" y="50" as="sourcePoint" />
            <Array as="points">
              <mxPoint x="110" y="80" />
            </Array>
          </mxGeometry>
        </mxCell>
        <mxCell id="Bm6jAi3F0s3E43qV5JZB-45" value="" style="html=1;points=[[0,0,0,0,5],[0,1,0,0,-5],[1,0,0,0,5],[1,1,0,0,-5]];perimeter=orthogonalPerimeter;outlineConnect=0;targetShapes=umlLifeline;portConstraint=eastwest;newEdgeStyle={&quot;curved&quot;:0,&quot;rounded&quot;:0};" vertex="1" parent="Bm6jAi3F0s3E43qV5JZB-29">
          <mxGeometry x="70" y="210" width="10" height="40" as="geometry" />
        </mxCell>
        <mxCell id="Bm6jAi3F0s3E43qV5JZB-46" value="Iterate over photos" style="html=1;align=left;spacingLeft=2;endArrow=block;rounded=0;edgeStyle=orthogonalEdgeStyle;curved=0;rounded=0;" edge="1" target="Bm6jAi3F0s3E43qV5JZB-45" parent="Bm6jAi3F0s3E43qV5JZB-29">
          <mxGeometry relative="1" as="geometry">
            <mxPoint x="75" y="190" as="sourcePoint" />
            <Array as="points">
              <mxPoint x="105" y="220" />
            </Array>
          </mxGeometry>
        </mxCell>
        <mxCell id="Bm6jAi3F0s3E43qV5JZB-47" value="" style="html=1;points=[[0,0,0,0,5],[0,1,0,0,-5],[1,0,0,0,5],[1,1,0,0,-5]];perimeter=orthogonalPerimeter;outlineConnect=0;targetShapes=umlLifeline;portConstraint=eastwest;newEdgeStyle={&quot;curved&quot;:0,&quot;rounded&quot;:0};" vertex="1" parent="Bm6jAi3F0s3E43qV5JZB-29">
          <mxGeometry x="70" y="300" width="10" height="80" as="geometry" />
        </mxCell>
        <mxCell id="Bm6jAi3F0s3E43qV5JZB-30" value="&lt;div&gt;Metadata &lt;br&gt;&lt;/div&gt;&lt;div&gt;Extractor&lt;/div&gt;" style="shape=umlLifeline;perimeter=lifelinePerimeter;whiteSpace=wrap;html=1;container=1;dropTarget=0;collapsible=0;recursiveResize=0;outlineConnect=0;portConstraint=eastwest;newEdgeStyle={&quot;curved&quot;:0,&quot;rounded&quot;:0};" vertex="1" parent="1">
          <mxGeometry x="590" y="50" width="100" height="590" as="geometry" />
        </mxCell>
        <mxCell id="Bm6jAi3F0s3E43qV5JZB-31" value="&lt;div&gt;SQLite&lt;/div&gt;" style="shape=umlLifeline;perimeter=lifelinePerimeter;whiteSpace=wrap;html=1;container=1;dropTarget=0;collapsible=0;recursiveResize=0;outlineConnect=0;portConstraint=eastwest;newEdgeStyle={&quot;curved&quot;:0,&quot;rounded&quot;:0};" vertex="1" parent="1">
          <mxGeometry x="425" y="50" width="100" height="590" as="geometry" />
        </mxCell>
        <mxCell id="Bm6jAi3F0s3E43qV5JZB-48" value="" style="html=1;verticalAlign=bottom;endArrow=block;curved=0;rounded=0;entryX=1;entryY=0;entryDx=0;entryDy=5;" edge="1" parent="1">
          <mxGeometry relative="1" as="geometry">
            <mxPoint x="474.5" y="420" as="sourcePoint" />
            <mxPoint x="270" y="420" as="targetPoint" />
          </mxGeometry>
        </mxCell>
        <mxCell id="Bm6jAi3F0s3E43qV5JZB-49" value="&lt;div&gt;Check if photo is present&lt;/div&gt;&lt;div&gt;by checksum&lt;/div&gt;" style="html=1;verticalAlign=bottom;endArrow=open;dashed=1;endSize=8;curved=0;rounded=0;exitX=1;exitY=1;exitDx=0;exitDy=-5;" edge="1" parent="1">
          <mxGeometry relative="1" as="geometry">
            <mxPoint x="474.5" y="360" as="targetPoint" />
            <mxPoint x="270" y="360" as="sourcePoint" />
          </mxGeometry>
        </mxCell>
        <mxCell id="Bm6jAi3F0s3E43qV5JZB-50" value="No photo" style="text;html=1;align=center;verticalAlign=middle;resizable=0;points=[];autosize=1;strokeColor=none;fillColor=none;" vertex="1" parent="1">
          <mxGeometry x="325" y="398" width="70" height="30" as="geometry" />
        </mxCell>
        <mxCell id="Bm6jAi3F0s3E43qV5JZB-51" value="Save photo record" style="html=1;verticalAlign=bottom;startArrow=oval;startFill=1;endArrow=block;startSize=8;curved=0;rounded=0;" edge="1" parent="1" target="Bm6jAi3F0s3E43qV5JZB-31">
          <mxGeometry width="60" relative="1" as="geometry">
            <mxPoint x="270" y="480" as="sourcePoint" />
            <mxPoint x="330" y="480" as="targetPoint" />
          </mxGeometry>
        </mxCell>
        <mxCell id="Bm6jAi3F0s3E43qV5JZB-53" value="Publish metadata message" style="html=1;verticalAlign=bottom;startArrow=oval;startFill=1;endArrow=block;startSize=8;curved=0;rounded=0;" edge="1" parent="1" target="Bm6jAi3F0s3E43qV5JZB-30">
          <mxGeometry x="-0.4046" width="60" relative="1" as="geometry">
            <mxPoint x="270" y="520" as="sourcePoint" />
            <mxPoint x="330" y="520" as="targetPoint" />
            <mxPoint as="offset" />
          </mxGeometry>
        </mxCell>
      </root>
    </mxGraphModel>
  </diagram>
</mxfile>
